<svg width="24" height="21" viewBox="0 0 24 21" fill="none" xmlns="http://www.w3.org/2000/svg">
<path d="M1 1H5.05068L6.49369 13.5889C6.55367 13.9359 6.75456 14.2522 7.05937 14.4795C7.36416 14.7069 7.75233 14.8298 8.15233 14.8259H18.6017C18.9635 14.8425 19.3214 14.7547 19.6208 14.576C19.9204 14.3973 20.1449 14.1375 20.2604 13.8363L22.4664 8.01484C22.5486 7.79598 22.5705 7.56309 22.5301 7.33539C22.4897 7.10767 22.3882 6.89162 22.2342 6.70501C22.0736 6.50662 21.8588 6.34672 21.6097 6.23992C21.3605 6.13314 21.0847 6.08289 20.8077 6.09376H5.6312" stroke="black" stroke-width="1.45536" stroke-linecap="round" stroke-linejoin="round"/>
<path d="M18.3194 19.9197C17.8616 19.9197 17.4903 19.5938 17.4903 19.192C17.4903 18.7902 17.8616 18.4643 18.3194 18.4643C18.7773 18.4643 19.1486 18.7902 19.1486 19.192C19.1486 19.5938 18.7773 19.9197 18.3194 19.9197Z" stroke="black" stroke-width="1.45536" stroke-linecap="round" stroke-linejoin="round"/>
<path d="M7.53831 19.9197C7.08037 19.9197 6.70917 19.5938 6.70917 19.192C6.70917 18.7902 7.08037 18.4643 7.53831 18.4643C7.99622 18.4643 8.36745 18.7902 8.36745 19.192C8.36745 19.5938 7.99622 19.9197 7.53831 19.9197Z" stroke="black" stroke-width="1.45536" stroke-linecap="round" stroke-linejoin="round"/>
</svg>
