<svg width="24" height="24" viewBox="0 0 24 24" fill="none" xmlns="http://www.w3.org/2000/svg">
<g clip-path="url(#clip0_374_635)">
<path d="M19.5 16.9999H9.19456C8.38525 16.9999 7.9806 16.9999 7.70084 16.7629C7.42107 16.5259 7.35462 16.1267 7.22171 15.3284L5.77829 6.65849C5.64538 5.86018 5.57893 5.46102 5.29916 5.22398C5.0194 4.98694 4.61475 4.98694 3.80544 4.98694H3M5.85715 6.99993L17.1648 6.99309C18.8691 6.99206 19.7213 6.99154 20.2672 7.4234C20.4995 7.60716 20.6881 7.84024 20.8194 8.10579C21.1278 8.72981 20.9495 9.56309 20.5928 11.2296V11.2296C20.3503 12.3629 20.2291 12.9295 19.8837 13.3217C19.7346 13.491 19.5579 13.6339 19.3611 13.7443C18.9053 13.9999 18.3259 13.9999 17.167 13.9999H7.00054" stroke="black" stroke-width="2" stroke-linecap="round" stroke-linejoin="round"/>
<path d="M20 20.5C20 21.3284 19.3284 22 18.5 22C17.6716 22 17 21.3284 17 20.5C17 19.6716 17.6716 19 18.5 19C19.3284 19 20 19.6716 20 20.5Z" fill="black"/>
<path d="M10.5 20.5C10.5 21.3284 9.82843 22 9 22C8.17157 22 7.5 21.3284 7.5 20.5C7.5 19.6716 8.17157 19 9 19C9.82843 19 10.5 19.6716 10.5 20.5Z" fill="black"/>
</g>
<defs>
<clipPath id="clip0_374_635">
<rect width="24" height="24" fill="white"/>
</clipPath>
</defs>
</svg>
