<svg width="20" height="21" viewBox="0 0 20 21" fill="none" xmlns="http://www.w3.org/2000/svg">
<path d="M9.04839 2.94694C9.44015 1.73372 9.63604 1.12711 10 1.12711C10.364 1.12711 10.5598 1.73372 10.9516 2.94694L12.2763 7.04923C12.3842 7.38335 12.4382 7.55042 12.5697 7.64618C12.7013 7.74193 12.8768 7.74193 13.2279 7.74193L16.911 7.74193C18.1831 7.74193 18.8192 7.74193 18.9312 8.08794C19.0432 8.43394 18.5278 8.8067 17.4971 9.55221L14.339 11.8363C14.0549 12.0418 13.9128 12.1446 13.8623 12.299C13.8118 12.4535 13.8657 12.6203 13.9735 12.954L15.3106 17.0924C15.698 18.2916 15.8917 18.8911 15.5986 19.1043C15.3055 19.3175 14.7947 18.9485 13.7733 18.2104L10.5857 15.9071C10.3031 15.7029 10.1617 15.6007 10 15.6007C9.83826 15.6007 9.69694 15.7029 9.41432 15.9071L6.22667 18.2104C5.20525 18.9485 4.69455 19.3175 4.40141 19.1043C4.10827 18.8911 4.30199 18.2916 4.68942 17.0924L6.02651 12.954C6.13432 12.6203 6.18822 12.4535 6.13771 12.299C6.08719 12.1446 5.94512 12.0418 5.66099 11.8363L2.50295 9.55222C1.47217 8.8067 0.956788 8.43394 1.0688 8.08794C1.18081 7.74193 1.81687 7.74193 3.08899 7.74193L6.77207 7.74193C7.12319 7.74193 7.29875 7.74193 7.4303 7.64618C7.56184 7.55042 7.61579 7.38335 7.72369 7.04923L9.04839 2.94694Z" fill="#FFE600" stroke="#FFE600" stroke-width="2" stroke-linecap="round" stroke-linejoin="round"/>
</svg>
