<svg width="24" height="24" viewBox="0 0 24 24" fill="none" xmlns="http://www.w3.org/2000/svg">
<g clip-path="url(#clip0_374_585)">
<path d="M16.5457 3C15.6243 3.05633 14.7296 3.34287 13.9381 3.83519C13.156 4.32163 12.4975 4.99471 12.0173 5.79819C12.0096 5.81118 12.0057 5.81767 12 5.81767C11.9943 5.81767 11.9904 5.81118 11.9827 5.79819C11.5025 4.99471 10.844 4.32163 10.0619 3.83519C9.27037 3.34287 8.37573 3.05633 7.45429 3C6.00772 3 4.6204 3.59576 3.59752 4.65622C2.57465 5.71669 2 7.15498 2 8.6547C2 14.0547 12 21 12 21C12 21 22 14.1272 22 8.6547C22 7.15498 21.4254 5.71669 20.4025 4.65622C19.3796 3.59576 17.9923 3 16.5457 3Z" stroke="black" stroke-width="2" stroke-linecap="round" stroke-linejoin="round"/>
</g>
<defs>
<clipPath id="clip0_374_585">
<rect width="24" height="24" fill="white"/>
</clipPath>
</defs>
</svg>
