<svg width="29" height="26" viewBox="0 0 29 26" fill="none" xmlns="http://www.w3.org/2000/svg">
<path d="M20.1821 1.5C19.0303 1.57041 17.912 1.92859 16.9226 2.54399C15.945 3.15204 15.1219 3.99338 14.5216 4.99774C14.5119 5.01397 14.5071 5.02209 14.5 5.02209C14.4929 5.02209 14.4881 5.01397 14.4784 4.99774C13.8781 3.99338 13.055 3.15204 12.0774 2.54399C11.088 1.92859 9.96967 1.57041 8.81786 1.5C7.00965 1.5 5.2755 2.2447 3.9969 3.57028C2.71831 4.89586 2 6.69373 2 8.56838C2 15.3183 14.5 24 14.5 24C14.5 24 27 15.409 27 8.56838C27 6.69373 26.2817 4.89586 25.0031 3.57028C23.7245 2.2447 21.9904 1.5 20.1821 1.5Z" fill="#FF0000" stroke="#FF0000" stroke-width="2.5" stroke-linecap="round" stroke-linejoin="round"/>
</svg>
