<svg width="29" height="26" viewBox="0 0 29 26" fill="none" xmlns="http://www.w3.org/2000/svg">
<path d="M20.1821 2C19.0303 2.07041 17.912 2.42859 16.9226 3.04399C15.945 3.65204 15.1219 4.49338 14.5216 5.49774C14.5119 5.51397 14.5071 5.52209 14.5 5.52209C14.4929 5.52209 14.4881 5.51397 14.4784 5.49774C13.8781 4.49338 13.055 3.65204 12.0774 3.04399C11.088 2.42859 9.96967 2.07041 8.81786 2C7.00965 2 5.2755 2.7447 3.9969 4.07028C2.71831 5.39586 2 7.19373 2 9.06838C2 15.8183 14.5 24.5 14.5 24.5C14.5 24.5 27 15.909 27 9.06838C27 7.19373 26.2817 5.39586 25.0031 4.07028C23.7245 2.7447 21.9904 2 20.1821 2Z" fill="#E9E9E9" stroke="#E9E9E9" stroke-width="2.5" stroke-linecap="round" stroke-linejoin="round"/>
</svg>
