<svg width="25" height="26" viewBox="0 0 25 26" fill="none" xmlns="http://www.w3.org/2000/svg">
<path d="M11.3105 3.68367C11.8002 2.16715 12.045 1.40889 12.5 1.40889C12.955 1.40889 13.1998 2.16715 13.6895 3.68367L15.3454 8.81153C15.4803 9.22919 15.5477 9.43802 15.7121 9.55772C15.8766 9.67742 16.096 9.67742 16.5349 9.67742H21.1388C22.7289 9.67742 23.524 9.67742 23.664 10.1099C23.804 10.5424 23.1598 11.0084 21.8713 11.9403L17.9238 14.7954C17.5686 15.0523 17.391 15.1807 17.3279 15.3738C17.2647 15.5669 17.3321 15.7754 17.4669 16.1925L19.1382 21.3655C19.6225 22.8644 19.8647 23.6139 19.4982 23.8804C19.1318 24.1469 18.4934 23.6856 17.2167 22.763L13.2321 19.8838C12.8788 19.6286 12.7022 19.5009 12.5 19.5009C12.2978 19.5009 12.1212 19.6286 11.7679 19.8838L7.78334 22.763C6.50657 23.6856 5.86818 24.1469 5.50176 23.8804C5.13534 23.6139 5.37749 22.8644 5.86178 21.3655L7.53314 16.1925C7.6679 15.7754 7.73528 15.5669 7.67213 15.3738C7.60898 15.1807 7.4314 15.0523 7.07623 14.7954L3.12868 11.9403C1.84022 11.0084 1.19598 10.5424 1.336 10.1099C1.47601 9.67742 2.27109 9.67742 3.86124 9.67742H8.46509C8.90399 9.67742 9.12343 9.67742 9.28787 9.55772C9.4523 9.43802 9.51974 9.22919 9.65461 8.81153L11.3105 3.68367Z" fill="#E9E9E9" stroke="#E9E9E9" stroke-width="2.5" stroke-linecap="round" stroke-linejoin="round"/>
</svg>
