<svg width="20" height="20" viewBox="0 0 20 20" fill="none" xmlns="http://www.w3.org/2000/svg">
<path d="M10.0021 11.3846C11.9142 11.3846 13.4644 9.83484 13.4644 7.92309C13.4644 6.01133 11.9142 4.46155 10.0021 4.46155C8.08992 4.46155 6.53979 6.01133 6.53979 7.92309C6.53979 9.83484 8.08992 11.3846 10.0021 11.3846Z" stroke="black" stroke-width="1.38462" stroke-linecap="round" stroke-linejoin="round"/>
<path d="M4.08838 16.7846C4.70638 15.7704 5.57496 14.9322 6.6106 14.3506C7.64624 13.7689 8.81411 13.4634 10.002 13.4634C11.1898 13.4634 12.3577 13.7689 13.3933 14.3506C14.429 14.9322 15.2975 15.7704 15.9156 16.7846" stroke="black" stroke-width="1.38462" stroke-linecap="round" stroke-linejoin="round"/>
<path d="M10.0019 19C14.9737 19 19.0039 14.9706 19.0039 10C19.0039 5.02944 14.9737 1 10.0019 1C5.03031 1 1 5.02944 1 10C1 14.9706 5.03031 19 10.0019 19Z" stroke="black" stroke-width="1.38462" stroke-linecap="round" stroke-linejoin="round"/>
</svg>
